<svg width="291" height="1020" viewBox="0 0 291 1020" fill="none" xmlns="http://www.w3.org/2000/svg">
<path id="28" d="M10.5 68.9175L45 36.9175C52 33.9175 67.1 27.4175 71.5 25.4175C75.9 23.4175 88.6667 17.5841 94.5 14.9175L134.5 4.91746C140.833 1.58412 157.9 -3.08254 175.5 4.91746C193.1 12.9175 216.5 21.9175 226 25.4175C227.167 26.2508 232.7 31.1175 245.5 43.9175C261.5 59.9175 281 69.9175 283.5 77.9175C286 85.9175 290.5 102.417 290.5 110.417C290.5 118.417 290.5 123.917 290.5 143.417C290.5 162.917 283.5 204.417 283.5 209.917C283.5 215.417 277.5 221.417 273 245.417C268.5 269.417 267.5 264.917 264 288.917C260.5 312.917 254.5 325.417 253.5 340.417C252.5 355.417 245.5 360.417 245.5 373.917C245.5 387.417 245.5 395.917 245.5 412.917C245.5 429.917 238 449.917 235.5 467.917C233 485.917 226 497.917 226 510.417C226 520.417 219.333 557.917 216 575.417C219.167 588.084 223.6 615.917 216 625.917C206.5 638.417 199 683.417 196.5 692.417C194 701.417 183.5 736.417 183.5 745.417C183.5 754.417 176 782.417 173.5 796.917C171 811.417 156 868.917 151.5 875.917C147 882.917 132.5 923.917 126.5 930.917C120.5 937.917 109 964.417 96.5 977.917C84 991.417 92 991.917 79.5 1000.92C69.5 1008.12 55.3333 1015.92 49.5 1018.92H32.5L13 1000.92C8.83333 992.584 0.5 974.517 0.5 968.917C0.5 961.917 0.5 905.417 0.5 899.917C0.5 894.417 0.5 870.417 0.5 863.417C0.5 857.817 0.5 822.751 0.5 805.917V736.917V684.417V592.917V538.917L10.5 500.917V452.917V412.917V349.917V281.917V224.917L0.5 153.917V121.917V90.9175V68.9175" fill="black" stroke="black"/>
</svg>
